<svg width="36" height="36" viewBox="0 0 36 36" fill="none" xmlns="http://www.w3.org/2000/svg">
<g clip-path="url(#clip0_3_1935)">
<path d="M27.1981 11.1136C26.9775 10.5459 26.714 10.1411 26.2899 9.71695C25.8658 9.29282 25.4609 9.02934 24.8933 8.80871C24.4648 8.64163 23.8222 8.44455 22.6376 8.391C21.3567 8.33316 20.9732 8.32031 17.728 8.32031C14.4827 8.32031 14.0993 8.33316 12.8183 8.391C11.6338 8.44455 10.9911 8.64377 10.5627 8.80871C9.99506 9.02934 9.59021 9.29282 9.16608 9.71695C8.74195 10.1411 8.47847 10.5459 8.25784 11.1136C8.09075 11.542 7.89368 12.1846 7.84013 13.3692C7.78229 14.6502 7.76944 15.0336 7.76944 18.2789C7.76944 21.5241 7.78229 21.9075 7.84013 23.1885C7.89368 24.3731 8.09289 25.0157 8.25784 25.4441C8.47847 26.0118 8.74195 26.4166 9.16608 26.8408C9.59021 27.2649 9.99506 27.5284 10.5627 27.749C10.9911 27.9161 11.6338 28.1132 12.8183 28.1667C14.0993 28.2246 14.4827 28.2374 17.728 28.2374C20.9732 28.2374 21.3567 28.2246 22.6376 28.1667C23.8222 28.1132 24.4648 27.9139 24.8933 27.749C25.4609 27.5284 25.8658 27.2649 26.2899 26.8408C26.714 26.4166 26.9775 26.0118 27.1981 25.4441C27.3652 25.0157 27.5623 24.3731 27.6158 23.1885C27.6737 21.9075 27.6865 21.5241 27.6865 18.2789C27.6865 15.0336 27.6737 14.6502 27.6158 13.3692C27.5623 12.1846 27.3631 11.542 27.1981 11.1136ZM17.728 24.5187C16.0728 24.5187 14.4854 23.8612 13.315 22.6908C12.1446 21.5204 11.487 19.933 11.487 18.2778C11.487 16.6226 12.1446 15.0352 13.315 13.8648C14.4854 12.6944 16.0728 12.0368 17.728 12.0368C19.3832 12.0368 20.9706 12.6944 22.141 13.8648C23.3114 15.0352 23.9689 16.6226 23.9689 18.2778C23.9689 19.933 23.3114 21.5204 22.141 22.6908C20.9706 23.8612 19.3832 24.5187 17.728 24.5187ZM24.2142 13.2514C23.8273 13.2514 23.4563 13.0977 23.1827 12.8241C22.9091 12.5506 22.7555 12.1795 22.7555 11.7926C22.7555 11.4057 22.9091 11.0347 23.1827 10.7611C23.4563 10.4876 23.8273 10.3339 24.2142 10.3339C24.6011 10.3339 24.9721 10.4876 25.2457 10.7611C25.5193 11.0347 25.673 11.4057 25.673 11.7926C25.673 12.1795 25.5193 12.5506 25.2457 12.8241C24.9721 13.0977 24.6011 13.2514 24.2142 13.2514Z" fill="#F00075"/>
<path d="M21.7781 18.2784C21.7781 19.3526 21.3513 20.3829 20.5917 21.1425C19.8321 21.9021 18.8019 22.3288 17.7277 22.3288C16.6535 22.3288 15.6232 21.9021 14.8636 21.1425C14.104 20.3829 13.6773 19.3526 13.6773 18.2784C13.6773 17.2042 14.104 16.1739 14.8636 15.4144C15.6232 14.6548 16.6535 14.228 17.7277 14.228C18.8019 14.228 19.8321 14.6548 20.5917 15.4144C21.3513 16.1739 21.7781 17.2042 21.7781 18.2784Z" fill="#F00075"/>
<path d="M17.728 0.606445C13.041 0.606445 8.54603 2.46833 5.23185 5.78251C1.91767 9.09669 0.0557861 13.5917 0.0557861 18.2786C0.0557861 22.9656 1.91767 27.4606 5.23185 30.7748C8.54603 34.0889 13.041 35.9508 17.728 35.9508C22.4149 35.9508 26.9099 34.0889 30.2241 30.7748C33.5383 27.4606 35.4002 22.9656 35.4002 18.2786C35.4002 13.5917 33.5383 9.09669 30.2241 5.78251C26.9099 2.46833 22.4149 0.606445 17.728 0.606445ZM29.805 23.2868C29.7472 24.5806 29.5416 25.4632 29.2417 26.2365C28.9311 27.0355 28.5155 27.7124 27.8408 28.3893C27.166 29.0662 26.487 29.4796 25.688 29.7902C24.9147 30.0901 24.0321 30.2957 22.7383 30.3557C21.4445 30.4157 21.0289 30.4285 17.7301 30.4285C14.4313 30.4285 14.0179 30.4135 12.7219 30.3557C11.4281 30.2979 10.5456 30.0922 9.77228 29.7902C8.97328 29.4796 8.29638 29.064 7.61948 28.3893C6.94258 27.7145 6.52916 27.0355 6.21856 26.2365C5.91867 25.4632 5.71303 24.5806 5.65305 23.2868C5.59307 21.993 5.58022 21.5774 5.58022 18.2786C5.58022 14.9798 5.59521 14.5643 5.65305 13.2704C5.71089 11.9766 5.91653 11.0941 6.21856 10.3208C6.52916 9.5218 6.94473 8.8449 7.61948 8.168C8.29424 7.4911 8.97328 7.07768 9.77228 6.76708C10.5456 6.46719 11.4281 6.26155 12.7219 6.20157C14.0157 6.14159 14.4313 6.12874 17.7301 6.12874C21.0289 6.12874 21.4445 6.14373 22.7383 6.20157C24.0321 6.2594 24.9147 6.46504 25.688 6.76708C26.487 7.07768 27.1639 7.49324 27.8408 8.168C28.5177 8.84276 28.9311 9.5218 29.2417 10.3208C29.5416 11.0941 29.7472 11.9766 29.805 13.2704C29.8629 14.5643 29.8779 14.9798 29.8779 18.2786C29.8779 21.5774 29.8629 21.993 29.805 23.2868Z" fill="#F00075"/>
</g>
<defs>
<clipPath id="clip0_3_1935">
<rect x="0.0929871" y="0.643555" width="35.27" height="35.27" rx="17.635" fill="white"/>
</clipPath>
</defs>
</svg>
